<svg width="40" height="41" viewBox="0 0 40 41" fill="none" xmlns="http://www.w3.org/2000/svg">
<rect y="0.268005" width="40" height="40" rx="20" fill="#ff2222"/>
<path d="M26.3491 26.792C26.5251 27.112 26.5971 27.392 26.5651 27.632C26.5491 27.872 26.5251 28.072 26.4931 28.232C26.4451 28.408 26.3251 28.56 26.1331 28.688C25.9571 28.8 25.7571 28.888 25.5331 28.952C25.2451 29.032 25.0051 29.048 24.8131 29C24.5731 28.952 24.3731 28.872 24.2131 28.76C24.1171 28.68 24.0291 28.608 23.9491 28.544C23.8691 28.464 23.7891 28.392 23.7091 28.328C23.6291 28.248 23.5571 28.176 23.4931 28.112C23.4291 28.048 23.3811 27.984 23.3491 27.92C23.3171 27.856 23.2851 27.816 23.2531 27.8C23.2371 27.768 23.2211 27.744 23.2051 27.728L20.0131 23.12L16.8451 27.728C16.8291 27.744 16.8051 27.768 16.7731 27.8C16.7571 27.816 16.7251 27.856 16.6771 27.92C16.6451 27.984 16.5971 28.048 16.5331 28.112C16.4851 28.176 16.4291 28.248 16.3651 28.328C16.2851 28.392 16.1971 28.464 16.1011 28.544C16.0051 28.608 15.9171 28.68 15.8371 28.76C15.7411 28.824 15.6371 28.872 15.5251 28.904C15.4291 28.936 15.3331 28.968 15.2371 29C15.0291 29.048 14.8051 29.032 14.5651 28.952C14.0691 28.84 13.7251 28.6 13.5331 28.232C13.4371 28.04 13.3971 27.84 13.4131 27.632C13.4291 27.408 13.4771 27.184 13.5571 26.96C13.6531 26.736 13.7571 26.52 13.8691 26.312C13.9971 26.104 14.1251 25.904 14.2531 25.712C14.3171 25.632 14.3731 25.56 14.4211 25.496C14.4851 25.432 14.5491 25.36 14.6131 25.28C14.8211 25.008 15.0211 24.736 15.2131 24.464C15.4051 24.176 15.6131 23.872 15.8371 23.552L18.0691 20.312L14.7811 15.56L14.4931 15.152C14.4291 15.056 14.3651 14.968 14.3011 14.888C14.2371 14.808 14.1731 14.712 14.1091 14.6C14.0451 14.52 13.9811 14.432 13.9171 14.336C13.8531 14.24 13.7971 14.128 13.7491 14C13.7011 13.904 13.6531 13.816 13.6051 13.736C13.5731 13.64 13.5411 13.528 13.5091 13.4C13.4611 13.208 13.4451 13.032 13.4611 12.872C13.5091 12.664 13.6131 12.488 13.7731 12.344C13.8371 12.264 13.9091 12.2 13.9891 12.152C14.0851 12.104 14.1731 12.056 14.2531 12.008C14.4131 11.944 14.5571 11.896 14.6851 11.864C14.8131 11.832 14.9491 11.816 15.0931 11.816C15.3811 11.832 15.6531 11.936 15.9091 12.128C16.2291 12.336 16.5171 12.592 16.7731 12.896C16.8851 13.072 16.9971 13.24 17.1091 13.4C17.2211 13.544 17.3411 13.696 17.4691 13.856L17.4931 13.952C17.8931 14.48 18.2531 14.992 18.5731 15.488C18.9091 15.968 19.2771 16.48 19.6771 17.024C19.7411 17.104 19.7971 17.184 19.8451 17.264C19.8931 17.344 19.9491 17.424 20.0131 17.504C20.0771 17.424 20.1331 17.344 20.1811 17.264C20.2291 17.184 20.2851 17.104 20.3491 17.024C20.7171 16.48 21.0691 15.968 21.4051 15.488C21.7571 14.992 22.1251 14.48 22.5091 13.952L22.5571 13.856C22.6851 13.696 22.8051 13.544 22.9171 13.4C23.0451 13.24 23.1651 13.072 23.2771 12.896C23.5331 12.592 23.8211 12.336 24.1411 12.128C24.3811 11.936 24.6531 11.832 24.9571 11.816C25.2131 11.816 25.4851 11.88 25.7731 12.008C25.9651 12.12 26.1091 12.232 26.2051 12.344C26.3971 12.488 26.5171 12.664 26.5651 12.872C26.5811 13.032 26.5651 13.208 26.5171 13.4C26.4851 13.528 26.4451 13.64 26.3971 13.736C26.3651 13.816 26.3091 13.904 26.2291 14C26.1331 14.24 26.0291 14.44 25.9171 14.6C25.8531 14.712 25.7891 14.808 25.7251 14.888C25.6611 14.968 25.6051 15.056 25.5571 15.152L25.2691 15.56L21.9571 20.312L24.1891 23.552L25.4851 25.376C25.6291 25.616 25.7731 25.848 25.9171 26.072C26.0611 26.296 26.2051 26.536 26.3491 26.792Z" fill="white"/>
</svg>
